<svg aria-hidden="true" style="position: absolute; width: 0; height: 0; overflow: hidden;" version="1.1" xmlns="http://www.w3.org/2000/svg" xmlns:xlink="http://www.w3.org/1999/xlink">
<defs>
<symbol id="icon-facebook" viewBox="0 0 32 32">
<title>facebook</title>
<path d="M19 6h5v-6h-5c-3.86 0-7 3.14-7 7v3h-4v6h4v16h6v-16h5l1-6h-6v-3c0-0.542 0.458-1 1-1z"></path>
</symbol>
<symbol id="icon-google-plus" viewBox="0 0 32 32">
<title>google-plus</title>
<path d="M10.181 14.294v3.494h5.775c-0.231 1.5-1.744 4.394-5.775 4.394-3.475 0-6.313-2.881-6.313-6.431s2.838-6.431 6.313-6.431c1.981 0 3.3 0.844 4.056 1.569l2.762-2.662c-1.775-1.656-4.075-2.662-6.819-2.662-5.631 0.006-10.181 4.556-10.181 10.188s4.55 10.181 10.181 10.181c5.875 0 9.775-4.131 9.775-9.95-0.003-0.599-0.062-1.182-0.173-1.747l0.010 0.059h-9.613zM32 14h-3v-3h-3v3h-3v3h3v3h3v-3h3z"></path>
</symbol>
<symbol id="icon-linkedin2" viewBox="0 0 32 32">
<title>linkedin2</title>
<path d="M12 12h5.535v2.837h0.079c0.77-1.381 2.655-2.837 5.464-2.837 5.842 0 6.922 3.637 6.922 8.367v9.633h-5.769v-8.54c0-2.037-0.042-4.657-3.001-4.657-3.005 0-3.463 2.218-3.463 4.509v8.688h-5.767v-18zM2 12h6v18h-6v-18zM8 7c0 1.657-1.343 3-3 3s-3-1.343-3-3v0c0-1.657 1.343-3 3-3s3 1.343 3 3v0z"></path>
</symbol>
<symbol id="icon-twitter" viewBox="0 0 32 32">
<title>twitter</title>
<path d="M32 7.075c-1.098 0.502-2.371 0.865-3.708 1.025l-0.061 0.006c1.357-0.823 2.377-2.084 2.874-3.584l0.013-0.047c-1.2 0.724-2.597 1.277-4.084 1.58l-0.085 0.014c-1.2-1.275-2.899-2.069-4.784-2.069-0.004 0-0.007 0-0.011 0h0.001c-3.625 0-6.563 2.938-6.563 6.563v0c0 0.512 0.056 1.012 0.169 1.494-5.469-0.282-10.28-2.882-13.505-6.829l-0.026-0.033c-0.558 0.944-0.887 2.081-0.887 3.294 0 0.002 0 0.004 0 0.006v-0c0 0.002 0 0.005 0 0.008 0 2.265 1.149 4.262 2.896 5.44l0.023 0.015c-1.097-0.036-2.117-0.335-3.008-0.836l0.033 0.017v0.081c0 0 0 0.001 0 0.001 0 3.167 2.243 5.81 5.226 6.428l0.043 0.007c-0.517 0.146-1.112 0.23-1.726 0.23-0.439 0-0.869-0.043-1.284-0.125l0.042 0.007c0.867 2.627 3.272 4.501 6.124 4.563l0.007 0c-2.217 1.755-5.053 2.815-8.138 2.815-0.559 0-1.111-0.035-1.652-0.103l0.065 0.007c2.838 1.85 6.312 2.95 10.042 2.95 0.009 0 0.019 0 0.028-0h-0.001c12.075 0 18.681-10.006 18.681-18.681 0-0.287-0.006-0.569-0.019-0.85 1.291-0.937 2.378-2.061 3.245-3.347l0.030-0.047z"></path>
</symbol>
</defs>
</svg>
